# xmcd CD database file
#
# Track frame offsets:
#	150
#	28955
#	60525
#	95952
#	120535
#	152650
#	182300
#	207137
#	233440
#
# Disc length: 3439 seconds
#
# Revision: 0
# Processed by: cddbd v1.5.1PL0 Copyright (c) Steve Scherf et al.
# Submitted via: CDex 1.51
#
DISCID=6d0d6d09
DTITLE=Pete Malinverni - Of One Mind
DYEAR=1900
DGENRE=Jazz
TTITLE0=Sometimes I Feel Like a Motherless Child
TTITLE1=I Love You
TTITLE2=What Is There to Say?
TTITLE3=Dragon Roller Coaster Ride
TTITLE4=Pescara
TTITLE5=End of a Love Affair
TTITLE6=If Spring Were Only Here to Stay
TTITLE7=Blame It on My Youth
TTITLE8=Everything I Love
EXTD=
EXTT0=
EXTT1=
EXTT2=
EXTT3=
EXTT4=
EXTT5=
EXTT6=
EXTT7=
EXTT8=
PLAYORDER=
